<svg width="59" height="59" viewBox="0 0 59 59" fill="none" xmlns="http://www.w3.org/2000/svg">
<g clip-path="url(#clip0_55_182)">
<path d="M29.5 0C13.275 0 0 13.2987 0 29.6777C0 44.487 10.797 56.7786 24.898 59V38.2671H17.405V29.6777H24.898V23.132C24.898 15.6978 29.2935 11.6104 36.049 11.6104C39.2645 11.6104 42.6274 12.1732 42.6274 12.1732V19.4889H38.9104C35.2525 19.4889 34.102 21.7696 34.102 24.1095V29.6777H42.3029L40.9755 38.2671H34.102V59C41.0533 57.8976 47.3834 54.3366 51.9491 48.9594C56.5149 43.5824 59.0159 36.7435 58.9999 29.6777C58.9999 13.2987 45.7249 0 29.5 0Z" fill="#292729"/>
</g>
<defs>
<clipPath id="clip0_55_182">
<rect width="59" height="59" fill="white"/>
</clipPath>
</defs>
</svg>
