<svg width="57" height="57" viewBox="0 0 57 57" fill="none" xmlns="http://www.w3.org/2000/svg">
<path fill-rule="evenodd" clip-rule="evenodd" d="M16.5731 0.346528C11.9767 0.553916 7.99285 1.67767 4.77597 4.88098C1.54784 8.10112 0.438045 12.1008 0.230141 16.6493C0.100902 19.4883 -0.654814 40.9362 1.5366 46.561C3.01441 50.3556 5.92499 53.2733 9.75435 54.7558C11.5412 55.4508 13.581 55.9213 16.5731 56.0586C41.5918 57.1909 50.8659 56.5745 54.7768 46.561C55.4707 44.7785 55.9483 42.7406 56.0804 39.7559C57.2239 14.673 55.895 9.23615 51.5346 4.88098C48.0761 1.43103 44.0079 -0.91742 16.5731 0.346528ZM16.8034 51.0141C14.0641 50.8908 12.5779 50.4343 11.5862 50.0504C9.09133 49.0807 7.21739 47.2145 6.25373 44.7342C4.58488 40.4603 5.13838 20.1614 5.28728 16.8768C5.43337 13.6595 6.08517 10.719 8.35526 8.44898C11.1648 5.64641 14.7946 4.2729 39.5099 5.38833C42.7352 5.53405 45.6824 6.18452 47.9581 8.44898C50.7676 11.2515 52.1611 14.9093 51.0261 39.5298C50.9025 42.2622 50.4445 43.7449 50.0596 44.7342C47.517 51.2502 41.6676 52.1547 16.8034 51.0141ZM39.7824 13.2412C39.7824 15.0966 41.2912 16.6052 43.1539 16.6052C45.0166 16.6052 46.5281 15.0966 46.5281 13.2412C46.5281 11.386 45.0166 9.87866 43.1539 9.87866C41.2912 9.87866 39.7824 11.386 39.7824 13.2412ZM13.7298 28.2012C13.7298 36.1492 20.1889 42.5932 28.1567 42.5932C36.1245 42.5932 42.5835 36.1492 42.5835 28.2012C42.5835 20.2532 36.1245 13.8134 28.1567 13.8134C20.1889 13.8134 13.7298 20.2532 13.7298 28.2012ZM18.7926 28.2012C18.7926 23.0445 22.9844 18.8607 28.1567 18.8607C33.329 18.8607 37.5208 23.0445 37.5208 28.2012C37.5208 33.3607 33.329 37.5458 28.1567 37.5458C22.9844 37.5458 18.7926 33.3607 18.7926 28.2012Z" fill="#292729"/>
</svg>
